<?xml version="1.0" encoding="UTF-8"?>
<svg xmlns="http://www.w3.org/2000/svg" version="1.1" width="1227" height="335" style="background-color:transparent;">
  <path d="M0 0 C404.91 0 809.82 0 1227 0 C1227 110.55 1227 221.1 1227 335 C822.09 335 417.18 335 0 335 C0 224.45 0 113.9 0 0 Z " fill="#FEFEFE" transform="translate(0,0)"/>
  <path d="M0 0 C6.69708761 5.47943532 12.99870363 12.24380695 13.95703125 21.18066406 C14.47545032 29.29392251 14.51521689 36.87645025 10.75 44.25 C11.5853125 44.59998047 11.5853125 44.59998047 12.4375 44.95703125 C16.29014453 47.1111281 19.1767062 50.37556721 22.3125 53.44921875 C24.49679397 55.43923124 24.49679397 55.43923124 26.62890625 55.23828125 C30.31888031 53.51901157 33.93084387 51.67769327 37.52929688 49.77734375 C47.83548951 44.46303946 59.1246935 45.33429792 70.0703125 48.3828125 C73.4246695 49.46833328 76.56903094 50.73181022 79.75 52.25 C80.14638672 51.39063843 80.14638672 51.39063843 80.55078125 50.51391602 C81.81672463 48.12403552 83.26319324 46.14968082 84.9375 44.02734375 C85.55367187 43.24166016 86.16984375 42.45597656 86.8046875 41.64648438 C87.44664062 40.83501953 88.08859375 40.02355469 88.75 39.1875 C90.02172056 37.57231275 91.2925901 35.95645499 92.5625 34.33984375 C93.12582031 33.62691162 93.68914062 32.91397949 94.26953125 32.17944336 C95.49399576 30.58364141 96.63425297 28.92362055 97.75 27.25 C101.17946293 28.86674681 104.31263052 30.82597677 107.5 32.875 C108.48484375 33.50664063 109.4696875 34.13828125 110.484375 34.7890625 C111.23203125 35.27117187 111.9796875 35.75328125 112.75 36.25 C110.44978226 39.85966159 108.00211387 43.25077427 105.33203125 46.59765625 C104.71779297 47.36787109 104.10355469 48.13808594 103.47070312 48.93164062 C102.19207112 50.52698598 100.90815052 52.11810614 99.61914062 53.70507812 C99.00876953 54.47400391 98.39839844 55.24292969 97.76953125 56.03515625 C97.21370361 56.72488525 96.65787598 57.41461426 96.08520508 58.12524414 C94.56808322 60.53949018 94.05629743 62.42603713 93.75 65.25 C94.58961312 67.23307503 94.58961312 67.23307503 96 69 C101.34672357 76.23380248 102.30717822 84.29898413 102.25 93.0625 C102.24718018 94.02792725 102.24436035 94.99335449 102.24145508 95.98803711 C102.04121973 104.83784407 100.09151402 111.48160854 94.95703125 118.80859375 C94.35955078 120.01708984 94.35955078 120.01708984 93.75 121.25 C95.42880411 125.48540733 98.39938387 128.8860144 101.1875 132.4375 C101.67798828 133.07880859 102.16847656 133.72011719 102.67382812 134.38085938 C103.15142578 134.99123047 103.62902344 135.60160156 104.12109375 136.23046875 C104.55349365 136.78629639 104.98589355 137.34212402 105.43139648 137.91479492 C106.82362874 139.5260985 106.82362874 139.5260985 109.75 140.25 C110.471875 140.105625 111.19375 139.96125 111.9375 139.8125 C120.76974815 138.04605037 127.30337514 140.12270579 134.98828125 144.53515625 C141.18207919 148.72267689 144.41108311 154.23324934 146.75 161.25 C147.68706724 171.48093083 145.93047923 178.5722249 139.5 186.5625 C134.4852231 191.97630216 128.37757152 194.8414879 121.05078125 195.48828125 C112.09763565 195.71064696 105.71341179 194.23203911 99 188.125 C91.90541031 180.28622258 90.1953937 173.02438475 90.28125 162.66796875 C90.75 159.25 90.75 159.25 92.40625 156.61328125 C94.03301682 154.34794419 94.03301682 154.34794419 93.296875 151.8984375 C91.17552293 148.26642562 88.69871122 145.0937068 86 141.875 C85.48695313 141.22144531 84.97390625 140.56789062 84.4453125 139.89453125 C82.96705391 138.13027791 81.5951376 136.62632912 79.75 135.25 C75.95293383 135.11658957 73.63992716 136.29961708 70.1796875 137.859375 C65.48179183 139.71175191 61.26185841 139.14638414 56.30834961 138.7487793 C46.68060278 137.76188715 46.68060278 137.76188715 37.71728516 140.49951172 C34.45577238 143.86228227 32.59261103 147.9062316 30.73876953 152.16210938 C29.10383481 155.61444561 26.864466 158.60709521 24.625 161.6875 C23.87992187 162.75871094 23.13484375 163.82992187 22.3671875 164.93359375 C21.83351563 165.69800781 21.29984375 166.46242187 20.75 167.25 C21.74101932 169.24989484 22.74091645 171.23355678 23.8203125 173.1875 C27.0430057 179.48965559 27.89560322 185.24520476 26.75 192.25 C23.84343367 200.72320574 19.70937238 206.73894765 12.01953125 211.26953125 C4.74952427 214.66426798 -5.11542303 214.56392182 -12.6875 212.1875 C-19.1056631 209.27390133 -23.8565954 203.25371582 -27.25 197.25 C-29.19389053 189.61604578 -29.65924409 179.5403032 -26.25 172.25 C-21.82526905 165.52491177 -15.87153116 161.26504987 -8.33203125 158.5625 C-6.25 158.25 -6.25 158.25 -3.5859375 158.71484375 C0.00059324 159.28736383 2.25814118 159.33071093 5.75 158.25 C9.71398086 154.4169246 12.12021409 149.21656137 14.62597656 144.37109375 C15.66590598 142.40869002 16.77626704 140.53384092 17.9609375 138.65625 C21.48111755 133.72422075 21.48111755 133.72422075 22.61328125 128.046875 C21.76621734 125.89264246 21.76621734 125.89264246 18.75 124.25 C17.25 121.45703125 17.25 121.45703125 15.75 118.0625 C15.255 116.95519531 14.76 115.84789062 14.25 114.70703125 C13.755 113.56621094 13.26 112.42539063 12.75 111.25 C12.20214844 110.13109375 11.65429688 109.0121875 11.08984375 107.859375 C9.5141159 103.61455712 9.2547839 100.16995572 9.3125 95.6875 C9.31499756 94.90681152 9.31749512 94.12612305 9.32006836 93.32177734 C9.46969078 86.79557969 10.80603368 81.24190407 12.97265625 75.0703125 C13.95466606 71.54092182 13.95466606 71.54092182 12.75 68.25 C10.36617143 65.86514822 10.36617143 65.86514822 7.4375 63.625 C6.47199219 62.84898437 5.50648438 62.07296875 4.51171875 61.2734375 C1.31758126 58.90033827 1.31758126 58.90033827 -2.25 57.25 C-5.24992729 58.54144978 -5.24992729 58.54144978 -8.25 60.25 C-16.65199906 62.40765622 -26.56327467 62.62376303 -34.25 58.25 C-38.99109137 55.2115105 -43.0933934 51.9849099 -46.25 47.25 C-46.25 46.59 -46.25 45.93 -46.25 45.25 C-46.91 45.25 -47.57 45.25 -48.25 45.25 C-52.52370005 36.7025999 -52.41569118 26.05420987 -50.625 16.75 C-46.99618522 7.51301692 -39.46767426 -0.10889514 -30.4375 -4.1875 C-19.49878702 -8.05117385 -9.91019219 -5.33625733 0 0 Z " fill="#5340AD" transform="translate(127.25,79.75)"/>
  <path d="M0 0 C1.07507812 0.90492188 1.07507812 0.90492188 2.171875 1.828125 C2.80609375 2.32828125 3.4403125 2.8284375 4.09375 3.34375 C11.7662039 10.06563439 17.47947843 22.16113757 18.38891602 32.23144531 C19.17676589 49.69679891 17.27566128 64.65475076 5.10546875 78.11328125 C-3.8024535 86.63875246 -14.95312791 90.66262084 -27.140625 91.203125 C-38.44787022 90.93428141 -44.88002816 86.78775588 -53.828125 79.828125 C-54.158125 95.338125 -54.488125 110.848125 -54.828125 126.828125 C-62.418125 126.828125 -70.008125 126.828125 -77.828125 126.828125 C-77.828125 82.938125 -77.828125 39.048125 -77.828125 -6.171875 C-70.568125 -6.171875 -63.308125 -6.171875 -55.828125 -6.171875 C-55.498125 -2.871875 -55.168125 0.428125 -54.828125 3.828125 C-54.01021484 3.03148437 -54.01021484 3.03148437 -53.17578125 2.21875 C-37.82008736 -12.16572906 -16.99985125 -13.22210653 0 0 Z " fill="#1F3567" transform="translate(1074.828125,155.171875)"/>
  <path d="M0 0 C5.45902432 5.08253988 8.86319904 9.97974726 11.50390625 16.96484375 C11.50390625 20.59484375 11.50390625 24.22484375 11.50390625 27.96484375 C3.58390625 27.96484375 -4.33609375 27.96484375 -12.49609375 27.96484375 C-13.81609375 24.66484375 -15.13609375 21.36484375 -16.49609375 17.96484375 C-21.27199105 13.06326494 -27.59335421 10.0371167 -34.44921875 9.91015625 C-43.49952955 10.40341963 -48.87067379 11.97688179 -54.99609375 18.71484375 C-56.96057677 22.97122363 -57.2987848 26.35557657 -56.49609375 30.96484375 C-53.6935551 36.90622568 -49.16119261 39.54095541 -43.2331543 41.84399414 C-40.70655224 42.71359038 -38.16883085 43.53432128 -35.62109375 44.33984375 C-33.75232 44.94965068 -31.88383418 45.56034064 -30.015625 46.171875 C-29.08830566 46.47303223 -28.16098633 46.77418945 -27.20556641 47.08447266 C4.84483103 57.49839707 4.84483103 57.49839707 11.87890625 71.21484375 C15.47690128 79.03657207 16.23537653 90.1353827 13.37890625 98.40234375 C12.53515625 100.17578125 12.53515625 100.17578125 11.50390625 101.96484375 C10.900625 103.06699219 10.900625 103.06699219 10.28515625 104.19140625 C3.4974393 115.46655829 -6.88903084 120.31293788 -19.109375 124.078125 C-34.99212994 127.87228638 -53.64274756 125.99825105 -67.93359375 118.21484375 C-74.99549896 113.59967417 -80.76111237 107.05087566 -83.49609375 98.96484375 C-83.49609375 97.64484375 -83.49609375 96.32484375 -83.49609375 94.96484375 C-84.15609375 94.96484375 -84.81609375 94.96484375 -85.49609375 94.96484375 C-85.49609375 91.33484375 -85.49609375 87.70484375 -85.49609375 83.96484375 C-77.57609375 83.96484375 -69.65609375 83.96484375 -61.49609375 83.96484375 C-60.50609375 87.26484375 -59.51609375 90.56484375 -58.49609375 93.96484375 C-55.43621663 98.97191541 -51.98758583 101.3437988 -46.56640625 103.26953125 C-36.58424828 105.53012173 -25.52983196 105.05427373 -16.49609375 99.96484375 C-13.7855225 98.06268849 -13.1536052 97.05124437 -11.49609375 93.96484375 C-10.69087995 88.51214597 -11.10093975 83.95190854 -13.49609375 78.96484375 C-19.35596576 73.3741735 -27.0341173 71.14012913 -34.62109375 68.90234375 C-35.72477295 68.56001709 -36.82845215 68.21769043 -37.96557617 67.86499023 C-42.64320059 66.41456672 -47.33071124 65.00725882 -52.0390625 63.66015625 C-60.82273833 61.02050237 -67.95099383 57.47649341 -74.49609375 50.96484375 C-75.8203125 48.18359375 -75.8203125 48.18359375 -76.49609375 45.96484375 C-77.15609375 45.96484375 -77.81609375 45.96484375 -78.49609375 45.96484375 C-79.81236067 42.34510973 -80.49609375 39.86917244 -80.49609375 35.96484375 C-81.15609375 35.96484375 -81.81609375 35.96484375 -82.49609375 35.96484375 C-83.57090707 22.82823651 -81.67809991 14.17493889 -73.51953125 3.33984375 C-55.01366889 -17.17601864 -20.73767584 -16.90818327 0 0 Z " fill="#1F3566" transform="translate(758.49609375,120.03515625)"/>
  <path d="M0 0 C0.92425781 0.42410156 1.84851563 0.84820312 2.80078125 1.28515625 C15.88343403 7.78124525 24.17078293 17.39149307 29.5546875 30.8203125 C30.23454758 34.14804869 30 37.60352567 30 41 C21.75 41 13.5 41 5 41 C4.01 37.7 3.02 34.4 2 31 C-3.31764729 24.40611736 -9.65868329 20.65281646 -18 19 C-29.92398721 18.00224524 -39.72142136 20.17559771 -48.99609375 27.95703125 C-57.18982581 36.31048518 -60.39758341 47.57180297 -61 59 C-61.09667969 60.54107422 -61.09667969 60.54107422 -61.1953125 62.11328125 C-61.62976947 74.90079818 -59.40498718 88.87665988 -51 99 C-43.34131701 106.6008816 -35.78897629 109.2461622 -25.125 109.4375 C-16.5507119 109.38360505 -9.85505843 107.42725901 -2.625 102.875 C0.96625202 99.20426304 0.96625202 99.20426304 5 90 C13.25 90 21.5 90 30 90 C26.70873819 104.81067814 18.48028098 116.01369258 5.7578125 124.46875 C1.62965109 126.76087362 -2.6712819 128.38757301 -7.1171875 129.95703125 C-9.90199566 130.85984551 -9.90199566 130.85984551 -11.859375 132.1171875 C-15.26510272 133.52173944 -18.74780714 133.33830282 -22.375 133.3125 C-23.17284912 133.30831055 -23.97069824 133.30412109 -24.79272461 133.29980469 C-41.63351277 132.98373519 -56.22799397 127.48919861 -68.5625 115.9375 C-75.33925327 108.89872815 -81.10205059 100.90238655 -82 91 C-82.66 91 -83.32 91 -84 91 C-88.51150529 68.12022316 -88.54122003 43.19276129 -76 23 C-67.04080068 9.98858331 -53.9010314 -0.06467703 -38.26977539 -3.64038086 C-25.92912075 -5.59561204 -11.30372397 -5.62557426 0 0 Z " fill="#203667" transform="translate(416,113)"/>
  <path d="M0 0 C8.25 0 16.5 0 25 0 C32.92 21.12 40.84 42.24 49 64 C51.18332119 61.81667881 51.69910174 60.4684324 52.70825195 57.58886719 C53.03231522 56.67320984 53.35637848 55.75755249 53.69026184 54.81414795 C54.03610825 53.81844788 54.38195465 52.8227478 54.73828125 51.796875 C55.10092575 50.76749817 55.46357025 49.73812134 55.83720398 48.67755127 C57.00102917 45.37023365 58.15691101 42.06020329 59.3125 38.75 C60.07954507 36.56491697 60.84711727 34.38001891 61.61523438 32.1953125 C63.08784735 28.00539354 64.55785079 23.81457425 66.02587891 19.62304688 C68.32259735 13.07184638 70.65503534 6.53407319 73 0 C80.92 0 88.84 0 97 0 C96.20178402 4.7892959 95.2879359 8.2394372 93.54296875 12.66796875 C93.28805161 13.31986176 93.03313446 13.97175476 92.77049255 14.6434021 C91.91504849 16.8269942 91.05131378 19.00720674 90.1875 21.1875 C89.57353157 22.74906149 88.96010283 24.31083526 88.34716797 25.87280273 C86.99091143 29.32678995 85.63130694 32.77943798 84.27001953 36.23144531 C81.80012958 42.50040404 79.35130061 48.7775286 76.90234375 55.0546875 C75.57926863 58.44224908 74.2557729 61.82964591 72.93203735 65.21694946 C72.07205534 67.4181974 71.2126442 69.61966848 70.35385132 71.82138062 C66.19961289 82.46603866 62.01892536 93.09702795 57.61328125 103.640625 C57.29755157 104.40109634 56.9818219 105.16156769 56.65652466 105.94508362 C51.66477797 117.76850135 45.02246545 128.33157084 32.75 133.4375 C27.82122859 135.23344122 23.18707629 136.14122744 17.9375 136.125 C17.10089844 136.12757813 16.26429688 136.13015625 15.40234375 136.1328125 C13 136 13 136 9 135 C9 128.73 9 122.46 9 116 C13.78515625 115.4140625 13.78515625 115.4140625 18.5703125 114.828125 C23.92381322 113.53548018 26.98004301 111.320145 30.3359375 106.9765625 C31.34527344 105.31753906 31.34527344 105.31753906 32.375 103.625 C33.06335938 102.52414063 33.75171875 101.42328125 34.4609375 100.2890625 C36.62914616 95.65547953 36.50069704 92.55942902 34.94042969 87.69995117 C34.43930664 86.49314697 33.93818359 85.28634277 33.421875 84.04296875 C33.14298431 83.36273148 32.86409363 82.6824942 32.57675171 81.98164368 C31.64403317 79.71286672 30.69683343 77.45041834 29.75 75.1875 C29.08856209 73.58379436 28.42827084 71.97961537 27.76904297 70.375 C26.32288798 66.85900132 24.87103313 63.34543164 23.41503906 59.83349609 C19.40987066 50.1676097 15.44231227 40.48629126 11.47912598 30.8031311 C10.13727359 27.52993908 8.7891617 24.25937587 7.44042969 20.98901367 C6.6085028 18.96151651 5.77678697 16.93393274 4.9453125 14.90625 C4.56055756 13.97758621 4.17580261 13.04892242 3.77938843 12.09211731 C3.25074692 10.79838448 3.25074692 10.79838448 2.71142578 9.47851562 C2.40359161 8.73073853 2.09575745 7.98296143 1.77859497 7.21252441 C1 5 1 5 0 0 Z " fill="#1F3567" transform="translate(565,149)"/>
  <path d="M0 0 C1.01151123 0.01095703 2.02302246 0.02191406 3.06518555 0.03320312 C16.55978662 0.42431949 26.17806714 5.73038096 35.4375 15.46875 C39.60759874 20.55627046 43.625 27.83676412 43.625 34.5625 C39.89689132 34.79542281 36.17065008 34.93709124 32.4375 35.0625 C30.85485352 35.16304687 30.85485352 35.16304687 29.24023438 35.265625 C26.17892829 35.34288194 23.59606136 35.31705527 20.625 34.5625 C18.25613841 32.19701381 17.06658686 29.54781874 15.625 26.5625 C11.13003946 22.34847449 6.10954234 21.20376606 0.0625 20.9375 C-6.90025751 21.23810913 -11.18770875 23.12185996 -15.8984375 28.20703125 C-20.73485387 34.39932157 -21.74729054 41.20968001 -21.6875 48.875 C-21.68258545 49.62120605 -21.6776709 50.36741211 -21.67260742 51.13623047 C-21.50263184 59.17128154 -20.05054677 66.65288309 -14.9375 73.08984375 C-10.42435382 77.34348402 -5.01837462 78.79816374 1.0625 79.125 C6.94770934 78.90151104 11.83256697 76.96012043 16.625 73.5625 C19.13078513 70.76057663 19.6780288 69.35038481 20.625 65.5625 C28.215 65.5625 35.805 65.5625 43.625 65.5625 C42.09405761 76.27909672 37.30809239 84.91564368 28.625 91.5625 C16.24279538 99.1472338 3.59711493 101.53473454 -10.80859375 98.9453125 C-21.55182191 96.03058313 -31.07796882 90.4679875 -37.484375 81.2265625 C-38.375 79.5625 -38.375 79.5625 -38.375 77.5625 C-39.035 77.5625 -39.695 77.5625 -40.375 77.5625 C-45.18745603 68.73966394 -46.75423835 60.71276108 -46.6875 50.6875 C-46.68258545 49.81053467 -46.6776709 48.93356934 -46.67260742 48.0300293 C-46.39001315 32.38590041 -40.400894 21.45845923 -29.375 10.5625 C-20.77938018 2.75286098 -11.50481186 -0.17659843 0 0 Z " fill="#1F3567" transform="translate(830.375,146.4375)"/>
  <path d="M0 0 C7.59 0 15.18 0 23 0 C23 8.25 23 16.5 23 25 C29.6 25 36.2 25 43 25 C43 31.27 43 37.54 43 44 C36.4 44 29.8 44 23 44 C23.04418317 50.86895957 23.11405135 57.73700266 23.20751953 64.60546875 C23.23570929 66.94100645 23.2569337 69.2766392 23.27099609 71.61230469 C23.29245246 74.97380159 23.33911906 78.33415807 23.390625 81.6953125 C23.39185364 82.73615997 23.39308228 83.77700745 23.39434814 84.84939575 C23.51485929 90.84214766 23.96919647 94.44954913 28 99 C31.00313748 100.50156874 33.79067522 100.09281204 37.125 100.0625 C40.528125 100.0315625 40.528125 100.0315625 44 100 C44 106.6 44 113.2 44 120 C40.04049095 120.13601367 36.08573598 120.23462036 32.125 120.3125 C31.01640625 120.35439453 29.9078125 120.39628906 28.765625 120.43945312 C19.60095528 120.57422768 12.89633574 118.64222689 6.125 112.3125 C0.59249338 103.68829851 -0.57242478 96.13173783 -0.390625 85.9921875 C-0.38213531 84.18223801 -0.38213531 84.18223801 -0.37347412 82.33572388 C-0.351241 78.51506394 -0.30106677 74.69537229 -0.25 70.875 C-0.22991822 68.27084696 -0.21167041 65.66667909 -0.1953125 63.0625 C-0.15141868 56.70796525 -0.08248018 50.3541463 0 44 C-4.95 44 -9.9 44 -15 44 C-15 37.73 -15 31.46 -15 25 C-10.05 25 -5.1 25 0 25 C0 16.75 0 8.5 0 0 Z " fill="#233869" transform="translate(511,124)"/>
  <path d="M0 0 C8.57811078 4.92661768 15.56658117 11.2557934 18.8046875 20.83984375 C20.77108093 30.47517158 20.1906238 40.68950684 15.3125 49.328125 C8.49002249 59.01298615 -0.09030864 64.30321857 -11.6875 66.328125 C-20.91904618 67.43932963 -29.10746741 64.48983471 -36.5625 59.078125 C-40.60624609 55.70713095 -43.38310371 52.04797282 -45.6875 47.328125 C-46.05359375 46.61398438 -46.4196875 45.89984375 -46.796875 45.1640625 C-48.06708223 41.11945526 -48.01648957 37.29285884 -48 33.078125 C-48.01611328 32.26988281 -48.03222656 31.46164063 -48.04882812 30.62890625 C-48.05696012 20.46390755 -45.09675042 13.88381862 -38.09375 6.5625 C-27.64767178 -3.13742977 -13.22157609 -6.17586778 0 0 Z " fill="#F3B926" transform="translate(266.6875,51.671875)"/>
  <path d="M0 0 C7.59 0 15.18 0 23 0 C23 7.92 23 15.84 23 24 C29.27 24 35.54 24 42 24 C42 30.27 42 36.54 42 43 C35.73 43 29.46 43 23 43 C23.09368495 50.01113792 23.19981375 57.02193668 23.31738281 64.03271484 C23.35562114 66.41677721 23.39048293 68.80089625 23.421875 71.18505859 C23.46763683 74.61576569 23.52561389 78.04608432 23.5859375 81.4765625 C23.59748871 82.53928375 23.60903992 83.602005 23.62094116 84.69692993 C23.72202799 89.787392 23.82034782 94.29153761 26 99 C29.22843487 100.65124077 33.18845455 100.09811545 36.75 100.0625 C37.92046875 100.05347656 39.0909375 100.04445313 40.296875 100.03515625 C41.18890625 100.02355469 42.0809375 100.01195312 43 100 C43.02888514 103.14581423 43.04675923 106.29159469 43.0625 109.4375 C43.07087891 110.33533203 43.07925781 111.23316406 43.08789062 112.15820312 C43.09111328 113.01220703 43.09433594 113.86621094 43.09765625 114.74609375 C43.10289307 115.53685303 43.10812988 116.3276123 43.11352539 117.14233398 C43 119 43 119 42 120 C31.48790064 120.94587397 18.64845532 121.75381779 9.73828125 115.3828125 C1.615588 108.58716609 1.615588 108.58716609 0.49171448 103.86380005 C-0.01523196 97.04591781 -0.12950729 90.26544877 -0.09765625 83.4296875 C-0.0962413 82.26744659 -0.09482635 81.10520569 -0.09336853 79.90774536 C-0.08781342 76.23013634 -0.07526941 72.55259033 -0.0625 68.875 C-0.05747919 66.36718839 -0.05291731 63.85937581 -0.04882812 61.3515625 C-0.03785872 55.23435107 -0.02062543 49.11718618 0 43 C-4.95 43 -9.9 43 -15 43 C-15 36.73 -15 30.46 -15 24 C-10.05 24 -5.1 24 0 24 C0 16.08 0 8.16 0 0 Z " fill="#213869" transform="translate(1116,124)"/>
  <path d="M0 0 C6.72159404 5.49948603 12.93120469 12.22484377 13.97314453 21.16455078 C14.60359515 29.74777028 14.65984737 37.87070278 9.75 45.25 C9.25242188 46.02859375 8.75484375 46.8071875 8.2421875 47.609375 C2.91229516 55.19517526 -4.09649431 59.57185729 -13.25 61.25 C-24.36608154 62.04910214 -31.74289523 60.72215771 -40.484375 53.8046875 C-42.74255857 51.81628692 -44.58102411 49.75346384 -46.25 47.25 C-46.25 46.59 -46.25 45.93 -46.25 45.25 C-46.91 45.25 -47.57 45.25 -48.25 45.25 C-52.52370005 36.7025999 -52.41569118 26.05420987 -50.625 16.75 C-46.99618522 7.51301692 -39.46767426 -0.10889514 -30.4375 -4.1875 C-19.49878702 -8.05117385 -9.91019219 -5.33625733 0 0 Z " fill="#FE638F" transform="translate(127.25,79.75)"/>
  <path d="M0 0 C0 7.59 0 15.18 0 23 C-8.0625 23.75 -8.0625 23.75 -10.55883789 23.95605469 C-16.98044358 24.63581752 -21.14674734 26.84078177 -26.3125 30.75 C-31.21372967 37.2849729 -30.33967757 46.48698947 -30.4140625 54.25 C-30.43342865 55.50385498 -30.4527948 56.75770996 -30.4727478 58.04956055 C-30.52216934 61.35711676 -30.56353453 64.66464086 -30.60089111 67.97235107 C-30.64114634 71.35796811 -30.69213962 74.74342232 -30.7421875 78.12890625 C-30.83794705 84.75250759 -30.92207999 91.37616575 -31 98 C-38.26 98 -45.52 98 -53 98 C-53 66.65 -53 35.3 -53 3 C-46.07 3 -39.14 3 -32 3 C-31.67 6.63 -31.34 10.26 -31 14 C-30.443125 13.39671875 -29.88625 12.7934375 -29.3125 12.171875 C-20.03383537 2.45435461 -13.83453551 0 0 0 Z " fill="#1F3465" transform="translate(942,146)"/>
  <path d="M0 0 C7.00003625 4.33117711 11.38923709 10.6366835 13.5 18.5 C13.9104562 21.47321492 13.9776642 24.37650119 13.9375 27.375 C13.93065186 28.16293945 13.92380371 28.95087891 13.91674805 29.76269531 C13.69839316 37.70198077 11.77998845 45.17584585 6.234375 51.18359375 C0.43568582 55.58485108 -7.0369123 58.34586524 -14.33984375 57.85546875 C-21.19435445 56.72751129 -25.94297596 54.96842884 -30.5 49.5 C-31.20125 48.778125 -31.9025 48.05625 -32.625 47.3125 C-38.17755261 38.98367108 -38.43292803 29.22760908 -37.5 19.5 C-35.59063233 11.38788423 -31.19888573 4.50532582 -24.0625 0.0625 C-17.03657917 -3.06464395 -7.04808909 -3.08353898 0 0 Z " fill="#FBFBFC" transform="translate(1056.5,168.5)"/>
  <path d="M0 0 C5.01395458 3.9786846 7.69188378 9.32565133 9.6875 15.3125 C10.62456724 25.54343083 8.86797923 32.6347249 2.4375 40.625 C-2.5772769 46.03880216 -8.68492848 48.9039879 -16.01171875 49.55078125 C-24.96486435 49.77314696 -31.34908821 48.29453911 -38.0625 42.1875 C-44.93866196 34.59006231 -47.28262598 27.27807617 -46.9296875 17.01171875 C-45.72122864 9.76861405 -41.65645545 4.15966696 -36.25 -0.6875 C-23.9063178 -9.09170915 -12.16814708 -8.22667571 0 0 Z " fill="#259FFE" transform="translate(264.3125,225.6875)"/>
  <path d="M0 0 C1.75570312 0.01353516 1.75570312 0.01353516 3.546875 0.02734375 C4.43890625 0.03894531 5.3309375 0.05054688 6.25 0.0625 C6.25 0.7225 6.25 1.3825 6.25 2.0625 C7.28125 2.289375 8.3125 2.51625 9.375 2.75 C16.98285769 5.00021143 20.24693492 10.18844009 24.05078125 16.7578125 C26.96348341 22.35551371 27.00087078 27.8894758 26.25 34.0625 C23.39513927 42.5353188 19.1861174 48.56514866 11.51953125 53.08203125 C4.24952427 56.47676798 -5.61542303 56.37642182 -13.1875 54 C-19.6056631 51.08640133 -24.3565954 45.06621582 -27.75 39.0625 C-29.69389053 31.42854578 -30.15924409 21.3528032 -26.75 14.0625 C-22.38038298 7.42117868 -16.42813104 2.98322086 -8.90234375 0.4375 C-5.91680796 -0.08266594 -3.02773693 -0.03027737 0 0 Z " fill="#31ADFE" transform="translate(127.75,237.9375)"/>
  <path d="M0 0 C7.59 0 15.18 0 23 0 C23 31.35 23 62.7 23 95 C15.41 95 7.82 95 0 95 C0 63.65 0 32.3 0 0 Z " fill="#253969" transform="translate(956,149)"/>
  <path d="M0 0 C7.59 0 15.18 0 23 0 C23 31.35 23 62.7 23 95 C15.41 95 7.82 95 0 95 C0 63.65 0 32.3 0 0 Z " fill="#253969" transform="translate(460,149)"/>
  <path d="M0 0 C3.64217768 1.32442825 6.35351902 3.27010212 8.9375 6.1875 C10.46856573 10.24032105 10.90394517 13.73541995 10 18 C7.89426112 21.71311955 5.25969861 24.23755084 1.625 26.4375 C-5.62952503 27.99204108 -5.62952503 27.99204108 -9 27 C-13.19902701 23.9598186 -16.28925519 20.45597682 -17.74609375 15.421875 C-18.03688617 11.55255551 -17.74521128 9.05555633 -15.48046875 5.84765625 C-10.69768353 0.92390473 -7.0004112 -0.90980073 0 0 Z " fill="#223768" transform="translate(475,110)"/>
  <path d="M0 0 C4.4125235 2.1661479 7.09058512 4.43862 9 9 C9.54700764 13.29791716 9.31502266 15.41495791 7.25 19.25 C4.38631851 22.75005516 2.28409802 24.57196733 -2 26 C-6.37167678 26.41242234 -8.53892732 26.25149419 -12.4375 24.125 C-13.283125 23.42375 -14.12875 22.7225 -15 22 C-15 21.34 -15 20.68 -15 20 C-15.66 20 -16.32 20 -17 20 C-19.0322594 15.9354812 -18.81357647 11.38728646 -18 7 C-13.76986338 0.26866544 -7.56706748 -1.59706952 0 0 Z " fill="#213667" transform="translate(972,110)"/>
  <path d="M0 0 C4.62 0 9.24 0 14 0 C14 0.33 14 0.66 14 1 C10.04 1 6.08 1 2 1 C2 5.95 2 10.9 2 16 C5.155625 15.938125 5.155625 15.938125 8.375 15.875 C11.9609375 15.8046875 11.9609375 15.8046875 15 16 C17 18 17 18 17.24050903 20.40444946 C17.2338472 21.91668594 17.2338472 21.91668594 17.22705078 23.45947266 C17.22689972 24.60050446 17.22674866 25.74153625 17.22659302 26.91714478 C17.21627045 28.15362762 17.20594788 29.39011047 17.1953125 30.6640625 C17.1924826 31.92640717 17.18965271 33.18875183 17.18673706 34.48934937 C17.17742131 37.84646944 17.15944835 41.20331912 17.1373291 44.56036377 C17.1168755 47.98553122 17.1077364 51.41072659 17.09765625 54.8359375 C17.07556458 61.55736671 17.04206377 68.27866773 17 75 C15.09299476 71.77421353 14.75520762 69.4064004 14.77294922 65.68066406 C14.77310028 64.61986633 14.77325134 63.5590686 14.77340698 62.46612549 C14.78372955 61.32746033 14.79405212 60.18879517 14.8046875 59.015625 C14.8075174 57.84489441 14.81034729 56.67416382 14.81326294 55.46795654 C14.82445844 51.72853375 14.84956224 47.98935041 14.875 44.25 C14.8850306 41.71484721 14.89415631 39.17969066 14.90234375 36.64453125 C14.92439578 30.42959523 14.95892165 24.21483822 15 18 C10.05 18 5.1 18 0 18 C0 12.06 0 6.12 0 0 Z " fill="#16275D" transform="translate(1101,149)"/>
  <path d="M0 0 C6.93 0 13.86 0 21 0 C21 8.25 21 16.5 21 25 C20.34 24.67 19.68 24.34 19 24 C19 16.74 19 9.48 19 2 C13.06 2 7.12 2 1 2 C1 9.59 1 17.18 1 25 C0.67 25 0.34 25 0 25 C0 16.75 0 8.5 0 0 Z " fill="#18285C" transform="translate(1117,124)"/>
  <path d="M0 0 C5.97545976 4.90841338 7.77332445 11.63994669 9 19 C1.41 19 -6.18 19 -14 19 C-14 18.34 -14 17.68 -14 17 C-7.4 17 -0.8 17 6 17 C6 15.02 6 13.04 6 11 C5.34 11 4.68 11 4 11 C0 4.5 0 4.5 0 0 Z " fill="#2C3969" transform="translate(865,162)"/>
  <path d="M0 0 C7.59 0 15.18 0 23 0 C23 0.66 23 1.32 23 2 C16.07 2 9.14 2 2 2 C1.67 2.99 1.34 3.98 1 5 C0.67 5 0.34 5 0 5 C0 3.35 0 1.7 0 0 Z " fill="#303B65" transform="translate(851,212)"/>
  <path d="M0 0 C0 5.28 0 10.56 0 16 C-0.66 16 -1.32 16 -2 16 C-2 11.38 -2 6.76 -2 2 C-5.3 2 -8.6 2 -12 2 C-12 1.67 -12 1.34 -12 1 C-10.37512529 0.83211627 -8.75009558 0.66573213 -7.125 0.5 C-6.22007812 0.4071875 -5.31515625 0.314375 -4.3828125 0.21875 C-2 0 -2 0 0 0 Z " fill="#13265D" transform="translate(554,225)"/>
  <path d="M0 0 C0 0.33 0 0.66 0 1 C-3.63 1 -7.26 1 -11 1 C-11 1.66 -11 2.32 -11 3 C-12.95565258 3.38873828 -14.91466504 3.76060833 -16.875 4.125 C-17.96554687 4.33382812 -19.05609375 4.54265625 -20.1796875 4.7578125 C-21.57574219 4.87769531 -21.57574219 4.87769531 -23 5 C-23.66 4.34 -24.32 3.68 -25 3 C-16.51168642 0.43056454 -8.85406634 -0.38558031 0 0 Z " fill="#525E84" transform="translate(729,108)"/>
  <path d="M0 0 C0.98484375 0.00902344 1.9696875 0.01804687 2.984375 0.02734375 C4.10585937 0.04474609 4.10585937 0.04474609 5.25 0.0625 C5.25 0.7225 5.25 1.3825 5.25 2.0625 C3.02149723 2.40024332 0.79216533 2.7325187 -1.4375 3.0625 C-3.29955078 3.3409375 -3.29955078 3.3409375 -5.19921875 3.625 C-8.10886371 3.98350411 -10.82700022 4.15192256 -13.75 4.0625 C-9.21239141 0.33517866 -5.79921987 -0.06903833 0 0 Z " fill="#FD6D95" transform="translate(107.75,73.9375)"/>
  <path d="M0 0 C4.15153964 3.41019328 6.53086442 7.88055823 8 13 C7.60546875 15.28125 7.60546875 15.28125 7 17 C6.67 15.02 6.34 13.04 6 11 C5.34 11 4.68 11 4 11 C0 4.5 0 4.5 0 0 Z " fill="#404C75" transform="translate(865,162)"/>
  <path d="M0 0 C-6.26515714 4.17677142 -12.86475271 2.82525102 -20 2 C-20 1.67 -20 1.34 -20 1 C-17.41765641 0.63667026 -14.83460218 0.28405133 -12.25 -0.0625 C-11.52039063 -0.16626953 -10.79078125 -0.27003906 -10.0390625 -0.37695312 C-6.3892704 -0.85806208 -3.52327086 -1.04532842 0 0 Z " fill="#44517A" transform="translate(739,224)"/>
  <path d="M0 0 C0.66 0.33 1.32 0.66 2 1 C-1.63 4.63 -5.26 8.26 -9 12 C-9.66 11.67 -10.32 11.34 -11 11 C-7.6189962 6.86378916 -4.33409466 3.18683431 0 0 Z " fill="#D6D9E3" transform="translate(372,136)"/>
  <path d="M0 0 C3.52238047 1.56367357 6.27123994 3.69495889 9.25 6.125 C10.14203125 6.84945312 11.0340625 7.57390625 11.953125 8.3203125 C12.62859375 8.87460938 13.3040625 9.42890625 14 10 C13.01 10.33 12.02 10.66 11 11 C8.30078125 9.19921875 8.30078125 9.19921875 5.3125 6.6875 C4.31863281 5.86636719 3.32476562 5.04523438 2.30078125 4.19921875 C1.54152344 3.47347656 0.78226563 2.74773437 0 2 C0 1.34 0 0.68 0 0 Z " fill="#4B37A8" transform="translate(141,127)"/>
  <path d="M0 0 C0.66 0.33 1.32 0.66 2 1 C-1.3 4.3 -4.6 7.6 -8 11 C-8 6.67750434 -5.85084926 5.11604454 -3 2 C-2.01 1.34 -1.02 0.68 0 0 Z " fill="#D8DBE4" transform="translate(1032,169)"/>
  <path d="M0 0 C3 1 3 1 4.75 4.3125 C6.33072237 8.97563098 6.33072237 8.97563098 5 12 C2.65085508 9.65085508 2.26859643 8.04320554 1.375 4.875 C1.11460937 3.96492187 0.85421875 3.05484375 0.5859375 2.1171875 C0.39257812 1.41851562 0.19921875 0.71984375 0 0 Z " fill="#6556B6" transform="translate(222,150)"/>
  <path d="M0 0 C0.99 0.33 1.98 0.66 3 1 C0.36 3.64 -2.28 6.28 -5 9 C-5.33 8.01 -5.66 7.02 -6 6 C-4.02 4.02 -2.04 2.04 0 0 Z " fill="#1C2D5F" transform="translate(690,119)"/>
  <path d="M0 0 C0.66 0 1.32 0 2 0 C1.44894091 3.9492568 0.61064629 7.34920174 -1 11 C-2.1875 9.4375 -2.1875 9.4375 -3 7 C-1.625 3.25 -1.625 3.25 0 0 Z " fill="#374370" transform="translate(625,239)"/>
  <path d="M0 0 C3.63 0.33 7.26 0.66 11 1 C9 3 9 3 7.0546875 3.1953125 C5.03645833 3.13020833 3.01822917 3.06510417 1 3 C0.67 2.01 0.34 1.02 0 0 Z " fill="#414B75" transform="translate(465,134)"/>
  <path d="M0 0 C0.66 0.33 1.32 0.66 2 1 C1.39009109 4.55780196 0.4216319 7.6828589 -1 11 C-1.33 11 -1.66 11 -2 11 C-2.19622241 6.78121808 -1.80230168 3.82989106 0 0 Z " fill="#32406E" transform="translate(645,187)"/>
  <path d="M0 0 C0.66 0 1.32 0 2 0 C0.50079488 3.11373372 -1.08152136 6.12228205 -3 9 C-3.66 9 -4.32 9 -5 9 C-4.42676569 5.13066838 -2.61046448 2.84777943 0 0 Z " fill="#2D3A69" transform="translate(916,173)"/>
  <path d="M0 0 C3 1 3 1 4.75 3.9375 C5.1625 4.948125 5.575 5.95875 6 7 C5.67 7.66 5.34 8.32 5 9 C1.9083091 6.47043472 1.09068668 3.77545388 0 0 Z " fill="#384572" transform="translate(438,133)"/>
  <path d="M0 0 C0.598125 0.763125 1.19625 1.52625 1.8125 2.3125 C3.46959332 4.3483575 5.10297674 6.1978279 7 8 C2.25 7.25 2.25 7.25 0 5 C-0.125 2.375 -0.125 2.375 0 0 Z " fill="#384673" transform="translate(534,217)"/>
  <path d="M0 0 C1.52299523 2.93720508 2.80100302 5.9168649 4 9 C3.01 9.495 3.01 9.495 2 10 C-1.07692308 5.69230769 -1.07692308 5.69230769 -0.6875 2.1875 C-0.460625 1.465625 -0.23375 0.74375 0 0 Z " fill="#3C4975" transform="translate(697,208)"/>
  <path d="M0 0 C0.66 0.33 1.32 0.66 2 1 C0.7508258 4.45925163 -0.67527795 7.14693203 -3 10 C-2.49287967 6.28111761 -1.88391785 3.26545761 0 0 Z " fill="#1B2B5E" transform="translate(627,182)"/>
  <path d="M0 0 C0.66 0.33 1.32 0.66 2 1 C0.35 2.98 -1.3 4.96 -3 7 C-3.99 6.67 -4.98 6.34 -6 6 C-4.02 4.02 -2.04 2.04 0 0 Z " fill="#2D3B6A" transform="translate(1026,153)"/>
  <path d="M0 0 C0.33 0.99 0.66 1.98 1 3 C-5.625 3.25 -5.625 3.25 -9 1 C-5.8035914 -0.06546953 -3.34252724 -0.07427838 0 0 Z " fill="#283C6C" transform="translate(1157,241)"/>
  <path d="M0 0 C3.34998521 1.11666174 3.79340222 1.74694925 5.6875 4.5625 C6.12449219 5.20316406 6.56148437 5.84382812 7.01171875 6.50390625 C7.33785156 6.99761719 7.66398438 7.49132812 8 8 C7.01 8 6.02 8 5 8 C2 4.66666667 2 4.66666667 2 2 C1.34 2 0.68 2 0 2 C0 1.34 0 0.68 0 0 Z " fill="#32406C" transform="translate(680,164)"/>
  <path d="M0 0 C2 2 2 2 2.125 5.625 C2.08375 6.73875 2.0425 7.8525 2 9 C1.67 8.34 1.34 7.68 1 7 C0.34 7 -0.32 7 -1 7 C-0.67 4.69 -0.34 2.38 0 0 Z " fill="#536288" transform="translate(979,117)"/>
</svg>
